<svg width="48" height="48" viewBox="0 0 48 48" fill="none" xmlns="http://www.w3.org/2000/svg">
<rect width="48" height="48" rx="24" fill="white"/>
<path d="M35 16H30C30 14.4087 29.3679 12.8826 28.2426 11.7574C27.1174 10.6321 25.5913 10 24 10C22.4087 10 20.8826 10.6321 19.7574 11.7574C18.6321 12.8826 18 14.4087 18 16H13C12.4696 16 11.9609 16.2107 11.5858 16.5858C11.2107 16.9609 11 17.4696 11 18V33C11 33.5304 11.2107 34.0391 11.5858 34.4142C11.9609 34.7893 12.4696 35 13 35H35C35.5304 35 36.0391 34.7893 36.4142 34.4142C36.7893 34.0391 37 33.5304 37 33V18C37 17.4696 36.7893 16.9609 36.4142 16.5858C36.0391 16.2107 35.5304 16 35 16ZM24 12C25.0609 12 26.0783 12.4214 26.8284 13.1716C27.5786 13.9217 28 14.9391 28 16H20C20 14.9391 20.4214 13.9217 21.1716 13.1716C21.9217 12.4214 22.9391 12 24 12ZM35 33H13V18H18V20C18 20.2652 18.1054 20.5196 18.2929 20.7071C18.4804 20.8946 18.7348 21 19 21C19.2652 21 19.5196 20.8946 19.7071 20.7071C19.8946 20.5196 20 20.2652 20 20V18H28V20C28 20.2652 28.1054 20.5196 28.2929 20.7071C28.4804 20.8946 28.7348 21 29 21C29.2652 21 29.5196 20.8946 29.7071 20.7071C29.8946 20.5196 30 20.2652 30 20V18H35V33Z" fill="#404040"/>
</svg>
