<svg width="34" height="42" viewBox="0 0 34 42" fill="none" xmlns="http://www.w3.org/2000/svg">
<path d="M30.5 39H21.2262C22.7841 37.609 24.2532 36.1217 25.625 34.5469C30.7719 28.6275 33.5 22.3875 33.5 16.5C33.5 12.1239 31.7616 7.92709 28.6673 4.83274C25.5729 1.73839 21.3761 0 17 0C12.6239 0 8.42709 1.73839 5.33274 4.83274C2.23839 7.92709 0.5 12.1239 0.5 16.5C0.5 22.3875 3.22062 28.6275 8.375 34.5469C9.74677 36.1217 11.2159 37.609 12.7738 39H3.5C3.10218 39 2.72064 39.158 2.43934 39.4393C2.15804 39.7206 2 40.1022 2 40.5C2 40.8978 2.15804 41.2794 2.43934 41.5607C2.72064 41.842 3.10218 42 3.5 42H30.5C30.8978 42 31.2794 41.842 31.5607 41.5607C31.842 41.2794 32 40.8978 32 40.5C32 40.1022 31.842 39.7206 31.5607 39.4393C31.2794 39.158 30.8978 39 30.5 39ZM3.5 16.5C3.5 12.9196 4.92232 9.4858 7.45406 6.95406C9.9858 4.42232 13.4196 3 17 3C20.5804 3 24.0142 4.42232 26.5459 6.95406C29.0777 9.4858 30.5 12.9196 30.5 16.5C30.5 27.2306 20.0994 36.1875 17 38.625C13.9006 36.1875 3.5 27.2306 3.5 16.5ZM24.5 16.5C24.5 15.0166 24.0601 13.5666 23.236 12.3332C22.4119 11.0999 21.2406 10.1386 19.8701 9.5709C18.4997 9.00325 16.9917 8.85472 15.5368 9.14411C14.082 9.4335 12.7456 10.1478 11.6967 11.1967C10.6478 12.2456 9.9335 13.582 9.64411 15.0368C9.35472 16.4917 9.50325 17.9997 10.0709 19.3701C10.6386 20.7406 11.5999 21.9119 12.8332 22.736C14.0666 23.5601 15.5166 24 17 24C18.9891 24 20.8968 23.2098 22.3033 21.8033C23.7098 20.3968 24.5 18.4891 24.5 16.5ZM12.5 16.5C12.5 15.61 12.7639 14.74 13.2584 13.9999C13.7529 13.2599 14.4557 12.6831 15.2779 12.3425C16.1002 12.0019 17.005 11.9128 17.8779 12.0865C18.7508 12.2601 19.5526 12.6887 20.182 13.318C20.8113 13.9474 21.2399 14.7492 21.4135 15.6221C21.5872 16.495 21.4981 17.3998 21.1575 18.2221C20.8169 19.0443 20.2401 19.7471 19.5001 20.2416C18.76 20.7361 17.89 21 17 21C15.8065 21 14.6619 20.5259 13.818 19.682C12.9741 18.8381 12.5 17.6935 12.5 16.5Z" fill="#404040"/>
</svg>
