<svg width="36" height="45" viewBox="0 0 36 45" fill="none" xmlns="http://www.w3.org/2000/svg">
<path d="M35.6867 20.2294C35.6755 20.205 35.6642 20.1806 35.6511 20.1581L29.9998 10.1063V3C29.9998 2.20435 29.6838 1.44129 29.1212 0.87868C28.5586 0.31607 27.7955 0 26.9998 0H8.99984C8.20419 0 7.44113 0.31607 6.87852 0.87868C6.31591 1.44129 5.99984 2.20435 5.99984 3V10.11L0.348588 20.1581C0.335463 20.1806 0.324213 20.205 0.311088 20.2294C0.0662538 20.7222 -0.0377438 21.2731 0.0105593 21.8214C0.0588624 22.3696 0.257591 22.8938 0.584838 23.3363L0.605463 23.3625L16.813 44.415C16.9531 44.5967 17.133 44.7439 17.339 44.8451C17.5449 44.9463 17.7713 44.999 18.0008 44.999C18.2302 44.999 18.4567 44.9463 18.6626 44.8451C18.8685 44.7439 19.0485 44.5967 19.1886 44.415L35.3942 23.3625L35.4148 23.3363C35.7422 22.8938 35.9408 22.3694 35.9888 21.8211C36.0368 21.2729 35.9322 20.722 35.6867 20.2294ZM26.9998 3V9H8.99984V3H26.9998ZM17.9998 24C17.5548 24 17.1198 23.868 16.7498 23.6208C16.3798 23.3736 16.0914 23.0222 15.9211 22.611C15.7508 22.1999 15.7063 21.7475 15.7931 21.311C15.8799 20.8746 16.0942 20.4737 16.4088 20.159C16.7235 19.8443 17.1244 19.6301 17.5609 19.5432C17.9973 19.4564 18.4497 19.501 18.8609 19.6713C19.272 19.8416 19.6234 20.13 19.8706 20.5C20.1179 20.87 20.2498 21.305 20.2498 21.75C20.2498 22.3467 20.0128 22.919 19.5908 23.341C19.1689 23.7629 18.5966 24 17.9998 24ZM19.4998 39.0938V26.7806C20.7083 26.4203 21.7468 25.6371 22.4252 24.5741C23.1037 23.5111 23.3769 22.2394 23.1948 20.9915C23.0128 19.7437 22.3876 18.6031 21.4337 17.7782C20.4798 16.9534 19.2609 16.4995 17.9998 16.4995C16.7388 16.4995 15.5198 16.9534 14.5659 17.7782C13.612 18.6031 12.9869 19.7437 12.8048 20.9915C12.6228 22.2394 12.896 23.5111 13.5744 24.5741C14.2529 25.6371 15.2913 26.4203 16.4998 26.7806V39.0919L2.99984 21.5625L8.37921 12H27.6223L32.9998 21.5625L19.4998 39.0938Z" fill="#404040"/>
</svg>
